M48
;DRILL file {Pcbnew (2013-07-07 BZR 4022)-stable} date 10/10/2019 9:19:29 PM
;FORMAT={-:-/ absolute / inch / decimal}
FMAT,2
INCH,TZ
T1C0.025
T2C0.032
%
G90
G05
M72
T1
X7.53Y-6.6
X7.68Y-6.46
X7.78Y-6.46
X7.88Y-6.46
X7.98Y-6.46
X8.05Y-6.01
X8.05Y-6.06
X8.08Y-6.46
X8.09Y-6.09
X8.11Y-5.9
X8.11Y-5.95
X8.13Y-6.12
X8.14Y-5.78
X8.18Y-6.46
X8.23Y-6.12
X8.28Y-6.12
X8.28Y-6.46
X8.33Y-6.12
X8.38Y-6.12
X8.38Y-6.46
X8.49Y-6.12
X8.53Y-6.62
X8.54Y-6.12
X8.58Y-6.5
X8.59Y-6.12
X8.64Y-6.12
T2
X7.53Y-6.38
X7.53Y-6.98
X7.63Y-6.38
X7.63Y-6.98
X7.73Y-6.38
X7.73Y-6.98
X7.83Y-6.38
X7.83Y-6.98
X7.93Y-6.38
X7.93Y-6.98
X8.03Y-6.38
X8.03Y-6.98
X8.13Y-6.38
X8.13Y-6.98
X8.23Y-6.38
X8.23Y-6.98
X8.33Y-6.38
X8.33Y-6.98
X8.43Y-6.38
X8.43Y-6.98
X8.53Y-6.38
X8.53Y-6.98
X8.63Y-6.38
X8.63Y-6.98
T0
M30
