G04 (created by PCBNEW (2013-07-07 BZR 4022)-stable) date 10/10/2019 9:23:04 PM*
%MOIN*%
G04 Gerber Fmt 3.4, Leading zero omitted, Abs format*
%FSLAX34Y34*%
G01*
G70*
G90*
G04 APERTURE LIST*
%ADD10C,0.00590551*%
%ADD11C,0.00393701*%
%ADD12R,0.062X0.09*%
%ADD13O,0.062X0.09*%
G04 APERTURE END LIST*
G54D10*
G54D11*
X77300Y-60200D02*
X75700Y-61800D01*
X77300Y-51800D02*
X77500Y-51800D01*
X77300Y-60200D02*
X77300Y-51800D01*
X87500Y-70400D02*
X74100Y-70400D01*
X74100Y-63400D02*
X74100Y-70400D01*
X75700Y-61800D02*
X74100Y-63400D01*
X87500Y-51800D02*
X77500Y-51800D01*
X87500Y-70400D02*
X87500Y-51800D01*
G54D12*
X75300Y-69800D03*
G54D13*
X76300Y-69800D03*
X77300Y-69800D03*
X78300Y-69800D03*
X79300Y-69800D03*
X80300Y-69800D03*
X81300Y-69800D03*
X82300Y-69800D03*
X83300Y-69800D03*
X84300Y-69800D03*
X85300Y-69800D03*
X86300Y-69800D03*
X86300Y-63800D03*
X85300Y-63800D03*
X84300Y-63800D03*
X83300Y-63800D03*
X82300Y-63800D03*
X81300Y-63800D03*
X80300Y-63800D03*
X79300Y-63800D03*
X78300Y-63800D03*
X77300Y-63800D03*
X76300Y-63800D03*
X75300Y-63800D03*
M02*
