G04 (created by PCBNEW (2013-07-07 BZR 4022)-stable) date 10/10/2019 9:23:04 PM*
%MOIN*%
G04 Gerber Fmt 3.4, Leading zero omitted, Abs format*
%FSLAX34Y34*%
G01*
G70*
G90*
G04 APERTURE LIST*
%ADD10C,0.00590551*%
%ADD11C,0.00393701*%
%ADD12C,0.005*%
%ADD13C,0.00787402*%
%ADD14C,0.015*%
%ADD15C,0.01*%
%ADD16C,0.01125*%
%ADD17C,0.012*%
G04 APERTURE END LIST*
G54D10*
G54D11*
X77300Y-60200D02*
X75700Y-61800D01*
X77300Y-51800D02*
X77500Y-51800D01*
X77300Y-60200D02*
X77300Y-51800D01*
X87500Y-70400D02*
X74100Y-70400D01*
X74100Y-63400D02*
X74100Y-70400D01*
X75700Y-61800D02*
X74100Y-63400D01*
X87500Y-51800D02*
X77500Y-51800D01*
X87500Y-70400D02*
X87500Y-51800D01*
G54D12*
X75050Y-64550D02*
G75*
G03X75050Y-64550I-50J0D01*
G74*
G01*
X75000Y-65000D02*
X75000Y-64600D01*
X75000Y-64600D02*
X75600Y-64600D01*
X75600Y-64600D02*
X75600Y-65000D01*
X75600Y-65400D02*
X75600Y-65800D01*
X75600Y-65800D02*
X75000Y-65800D01*
X75000Y-65800D02*
X75000Y-65400D01*
X78120Y-62374D02*
X77750Y-62374D01*
X77750Y-62374D02*
X77750Y-52425D01*
X77750Y-52425D02*
X78120Y-52425D01*
X86679Y-62374D02*
X87049Y-62374D01*
X87049Y-62374D02*
X87049Y-52425D01*
X87049Y-52425D02*
X86679Y-52425D01*
G54D13*
X78439Y-62911D02*
G75*
G03X78439Y-62911I-39J0D01*
G74*
G01*
G54D14*
X74300Y-66300D02*
X74800Y-66300D01*
X74800Y-66300D02*
X74800Y-67300D01*
X74800Y-67300D02*
X74300Y-67300D01*
X74300Y-64300D02*
X87300Y-64300D01*
X87300Y-64300D02*
X87300Y-69300D01*
X87300Y-69300D02*
X74300Y-69300D01*
X74300Y-69300D02*
X74300Y-64300D01*
G54D12*
X75950Y-65292D02*
X75935Y-65307D01*
X75892Y-65321D01*
X75864Y-65321D01*
X75821Y-65307D01*
X75792Y-65278D01*
X75778Y-65250D01*
X75764Y-65192D01*
X75764Y-65150D01*
X75778Y-65092D01*
X75792Y-65064D01*
X75821Y-65035D01*
X75864Y-65021D01*
X75892Y-65021D01*
X75935Y-65035D01*
X75950Y-65050D01*
X76235Y-65321D02*
X76064Y-65321D01*
X76150Y-65321D02*
X76150Y-65021D01*
X76121Y-65064D01*
X76092Y-65092D01*
X76064Y-65107D01*
X77171Y-60921D02*
X77171Y-61164D01*
X77185Y-61192D01*
X77200Y-61207D01*
X77228Y-61221D01*
X77285Y-61221D01*
X77314Y-61207D01*
X77328Y-61192D01*
X77342Y-61164D01*
X77342Y-60921D01*
X77642Y-61221D02*
X77471Y-61221D01*
X77557Y-61221D02*
X77557Y-60921D01*
X77528Y-60964D01*
X77500Y-60992D01*
X77471Y-61007D01*
G54D15*
X78883Y-59299D02*
X78183Y-59299D01*
X78183Y-59133D01*
X78216Y-59033D01*
X78283Y-58966D01*
X78350Y-58933D01*
X78483Y-58899D01*
X78583Y-58899D01*
X78716Y-58933D01*
X78783Y-58966D01*
X78850Y-59033D01*
X78883Y-59133D01*
X78883Y-59299D01*
X78850Y-58633D02*
X78883Y-58533D01*
X78883Y-58366D01*
X78850Y-58299D01*
X78816Y-58266D01*
X78750Y-58233D01*
X78683Y-58233D01*
X78616Y-58266D01*
X78583Y-58299D01*
X78550Y-58366D01*
X78516Y-58499D01*
X78483Y-58566D01*
X78450Y-58599D01*
X78383Y-58633D01*
X78316Y-58633D01*
X78250Y-58599D01*
X78216Y-58566D01*
X78183Y-58499D01*
X78183Y-58333D01*
X78216Y-58233D01*
X78883Y-57566D02*
X78883Y-57966D01*
X78883Y-57766D02*
X78183Y-57766D01*
X78283Y-57833D01*
X78350Y-57899D01*
X78383Y-57966D01*
X78183Y-57333D02*
X78183Y-56866D01*
X78883Y-57166D01*
X78416Y-56300D02*
X78883Y-56300D01*
X78150Y-56466D02*
X78650Y-56633D01*
X78650Y-56200D01*
X78416Y-55633D02*
X78883Y-55633D01*
X78150Y-55800D02*
X78650Y-55966D01*
X78650Y-55533D01*
X78883Y-55266D02*
X78183Y-55266D01*
X78183Y-55000D01*
X78216Y-54933D01*
X78250Y-54900D01*
X78316Y-54866D01*
X78416Y-54866D01*
X78483Y-54900D01*
X78516Y-54933D01*
X78550Y-55000D01*
X78550Y-55266D01*
G54D16*
X74767Y-68783D02*
X74767Y-68083D01*
X74939Y-68083D01*
X74982Y-68116D01*
X75003Y-68150D01*
X75025Y-68216D01*
X75025Y-68316D01*
X75003Y-68383D01*
X74982Y-68416D01*
X74939Y-68450D01*
X74767Y-68450D01*
X75453Y-68783D02*
X75196Y-68783D01*
X75325Y-68783D02*
X75325Y-68083D01*
X75282Y-68183D01*
X75239Y-68250D01*
X75196Y-68283D01*
G54D17*
M02*
